<?xml version="1.0" ?><svg data-name="Livello 1" id="Livello_1" viewBox="0 0 66 66" xmlns="http://www.w3.org/2000/svg"><defs><style>.cls-1,.cls-2{fill:none;stroke:#fff;stroke-linecap:round;stroke-width:2px;}.cls-1{stroke-miterlimit:10;}.cls-2{stroke-linejoin:round;}</style></defs><title/><path d="M1,34A32,32,0,1,0,33,2,32,32,0,0,0,1,34Z"/><g data-name="Mail Remove" id="Mail_Remove"><g id="Mail"><path class="cls-1" d="M37.36,46.18h-19A1.43,1.43,0,0,1,17,44.67V23.51A1.43,1.43,0,0,1,18.32,22H44.77a1.43,1.43,0,0,1,1.32,1.51v13.6"/><path class="cls-2" d="M45.58,22.83L35.67,34.54a5.35,5.35,0,0,1-8.24,0l-9.91-11.7"/></g><line class="cls-2" x1="43" x2="49" y1="43" y2="43"/></g></svg>